# xmcd
#
# Track frame offsets:
#	150
#	20786
#	37566
#	55484
#	73038
#	88712
#	104383
#	118498
#	137878
#	155088
#	171150
#	192875
#	208097
#	226501
#	242684
#
# Disc length: 3499 seconds
#
# Revision: 0
# Processed by: cddbd v1.5.2PL0 Copyright (c) Steve Scherf et al.
# Submitted via: EasyCDDAExtractor 16.0.6.1
#
DISCID=d30da90f
DTITLE=Δημητρίου Άντζελα - Ποιος Είσαι
DYEAR=2004
DGENRE=Σύγχρονα Λαϊκά
TTITLE0=Θα Στεναχωρηθώ
TTITLE1=Ποιος Είσαι
TTITLE2=Που Πας Αγάπη Μου
TTITLE3=Ανοιχτή Πληγή
TTITLE4=Ένα Κλικ
TTITLE5=Ψεύτικα Φεγγάρια
TTITLE6=Έρωτας Αλήτης
TTITLE7=Ας Ερχόσουνα Για Λίγο
TTITLE8=Θα Μείνω Μόνη Μου
TTITLE9=Άλλη Μια Μέρα
TTITLE10=Και Εγώ Σε Περίμενα
TTITLE11=Διαγράφεσαι
TTITLE12=Τώρα Πια Δε Σ' Αγαπώ
TTITLE13=Ν' Αποφεύγεις
TTITLE14=Αντίο
EXTD=
EXTT0=
EXTT1=
EXTT2=
EXTT3=
EXTT4=
EXTT5=
EXTT6=
EXTT7=
EXTT8=
EXTT9=
EXTT10=
EXTT11=
EXTT12=
EXTT13=
EXTT14=
PLAYORDER=
